# xmcd
#
# Track frame offsets:
#	150
#	27766
#	67705
#	95315
#	123486
#	161335
#	178266
#	216076
#
# Disc length: 3236 seconds
#
# Revision: 1
# Processed by: cddbd v1.5.2PL0 Copyright (c) Steve Scherf et al.
# Submitted via: audiograbber 1.83.01
#
DISCID=600ca208
DTITLE=Grateful Dead - 82-09-24 Carrier Dome, Syracuse University, Syracuse NY
DYEAR=1900
DGENRE=
TTITLE0=Space
TTITLE1=Iko Iko
TTITLE2=Truckin'
TTITLE3=Going Down The Road Feeling Bad
TTITLE4=Black Peter
TTITLE5=Around and Around
TTITLE6=Sugar Magnolia
TTITLE7=Brokedown Palace
EXTD=
EXTT0=
EXTT1=
EXTT2=
EXTT3=
EXTT4=
EXTT5=
EXTT6=
EXTT7=
PLAYORDER=
